<svg xmlns="http://www.w3.org/2000/svg" width="100" height="100" viewBox="0 0 100 100"><g fill="currentColor"><path d="M7 64.714c0-5.477 4.44-9.918 9.918-9.918s9.919 4.44 9.919 9.918-4.441 9.918-9.919 9.918c-5.477 0-9.918-4.44-9.918-9.918"/><path d="m41.45 30.59 17 29.446a9.917 9.917 0 0 1-3.63 13.548 9.917 9.917 0 0 1-13.548-3.63L24.271 40.508a9.917 9.917 0 0 1 3.63-13.549 9.917 9.917 0 0 1 13.548 3.63m33.591.001 17 29.446a9.917 9.917 0 0 1-3.63 13.548 9.917 9.917 0 0 1-13.548-3.63L57.861 40.508a9.917 9.917 0 0 1 3.63-13.549 9.917 9.917 0 0 1 13.548 3.63"/></g></svg>